<svg xmlns="http://www.w3.org/2000/svg" width="31" height="31" viewBox="0 0 31 31" fill="none">
<path d="M5.6063 8.51983L7.77718 9.60527C8.17679 9.7798 8.61161 9.85845 9.04698 9.83489C9.48235 9.81134 9.90616 9.68624 10.2845 9.46959L12.3361 8.1345C12.6891 7.87828 12.9764 7.54206 13.1745 7.15342C13.3726 6.76478 13.4758 6.33473 13.4757 5.89849L13.3455 3.45083C13.298 3.01812 13.1495 2.60256 12.912 2.23774C12.6744 1.87292 12.3544 1.569 11.9778 1.3505L9.80695 0.237927C9.40816 0.061326 8.97334 -0.0188877 8.53775 0.00374373C8.10216 0.0263751 7.67797 0.1512 7.29959 0.36818L5.24816 1.70327C4.89577 1.96014 4.60889 2.29646 4.41091 2.68499C4.21287 3.07347 4.10921 3.50325 4.1084 3.93927L4.23865 6.38694C4.28082 6.82557 4.42687 7.2478 4.66468 7.6187C4.9025 7.98965 5.22531 8.29856 5.6063 8.51983Z" fill="#bababa"/>
<path d="M18.7011 11.6889L16.5303 10.5764C16.1316 10.4019 15.6977 10.3233 15.2632 10.3469C14.8287 10.3704 14.4058 10.4955 14.0283 10.7121L11.9551 12.0471C11.6041 12.3052 11.3181 12.6418 11.1202 13.0301C10.9223 13.4183 10.8179 13.8474 10.8154 14.2831L10.9457 16.7308C10.9932 17.1636 11.1417 17.5791 11.3793 17.944C11.6169 18.3088 11.9368 18.6127 12.3133 18.8311L14.4842 19.9166C14.8821 20.0931 15.316 20.1734 15.7508 20.1508C16.1855 20.1281 16.6087 20.0033 16.9862 19.7863L19.0431 18.4512C19.3943 18.192 19.6802 17.8545 19.878 17.4653C20.0759 17.0763 20.1803 16.6463 20.1828 16.2098L20.0525 13.7676C20.0028 13.3404 19.8549 12.9305 19.6205 12.5699C19.386 12.2093 19.0714 11.9078 18.7011 11.6889Z" fill="#bababa"/>
<path d="M25.3997 22.0119L23.2288 20.9265C22.83 20.7498 22.3952 20.6696 21.9596 20.6922C21.524 20.7149 21.0999 20.8397 20.7215 21.0567L18.67 22.3918C18.3183 22.6492 18.0319 22.9857 17.8339 23.3741C17.6359 23.7624 17.532 24.1919 17.5303 24.6278L17.6606 27.0755C17.7125 27.5012 17.862 27.9093 18.0973 28.2679C18.3326 28.6265 18.6475 28.926 19.0174 29.1432L21.1883 30.2287C21.5878 30.4032 22.0226 30.4818 22.458 30.4582C22.8934 30.4347 23.3172 30.3096 23.6956 30.093L25.7525 28.7579C26.1039 28.5004 26.3897 28.1638 26.5867 27.7754C26.7838 27.3869 26.8866 26.9575 26.8868 26.5219L26.7728 24.1176C26.726 23.6833 26.5772 23.2662 26.3386 22.9002C26.1 22.5343 25.7783 22.2299 25.3997 22.0119Z" fill="#bababa"/>
<path d="M9.40533 15.9331L9.30221 14.0282C9.30471 13.5924 9.40907 13.1633 9.607 12.7751C9.80488 12.3868 10.0908 12.0502 10.4419 11.7922L14.4418 9.19254C14.8192 8.976 15.2421 8.8509 15.6766 8.82734C16.1111 8.80379 16.5451 8.88243 16.9437 9.05686L18.6478 9.92521C19.0467 10.1018 19.4815 10.1821 19.917 10.1594C20.3527 10.1368 20.7768 10.0119 21.1552 9.79496L23.2067 8.45444C23.5588 8.1973 23.8454 7.86092 24.0433 7.47244C24.2413 7.08402 24.3451 6.65446 24.3464 6.21844L24.2161 3.7762C24.1695 3.34251 24.0213 2.92587 23.7837 2.56007C23.5461 2.19423 23.2257 1.88949 22.8485 1.67045L20.6776 0.557871C20.2781 0.383386 19.8432 0.304746 19.4078 0.3283C18.9724 0.351854 18.5486 0.476951 18.1702 0.693551L16.0753 2.00693C15.7239 2.2644 15.4381 2.60099 15.2411 2.98947C15.044 3.37795 14.9412 3.80735 14.9411 4.24294L15.0388 6.14788C15.0386 6.58352 14.9357 7.01292 14.7387 7.4014C14.5416 7.78988 14.2558 8.12647 13.9045 8.38389L9.90463 10.9835C9.52625 11.2005 9.10211 11.3254 8.66653 11.348C8.23088 11.3706 7.79611 11.2904 7.39727 11.1138L5.69855 10.2508C5.29971 10.0742 4.86494 9.99403 4.4293 10.0167C3.99371 10.0393 3.56957 10.1641 3.19119 10.3811L1.13971 11.7162C0.787322 11.9731 0.500496 12.3094 0.302458 12.6979C0.10442 13.0864 0.000814079 13.5162 0 13.9522L0.130252 16.3999C0.176491 16.8337 0.324491 17.2505 0.562093 17.6164C0.79975 17.9823 1.12034 18.2869 1.49791 18.5056L3.66878 19.591C4.06833 19.7656 4.50316 19.8442 4.93853 19.8207C5.3739 19.7971 5.79776 19.672 6.17615 19.4554L8.22763 18.1203C8.58018 17.8721 8.87004 17.5453 9.07449 17.1656C9.27888 16.7861 9.39214 16.3641 9.40533 15.9331Z" fill="#bababa"/>
<path d="M30.8917 14.0991C30.8433 13.6658 30.6945 13.2499 30.4571 12.8843C30.2197 12.5187 29.9002 12.2136 29.524 11.9933L27.3532 10.9079C26.9535 10.7338 26.5187 10.6553 26.0834 10.6789C25.6481 10.7024 25.2243 10.8273 24.8458 11.0435L22.7943 12.3786C22.4425 12.6361 22.1562 12.9725 21.9582 13.3609C21.7603 13.7493 21.6562 14.1787 21.6546 14.6146L21.7577 16.525C21.756 16.9609 21.6521 17.3903 21.4541 17.7787C21.2562 18.1671 20.9698 18.5036 20.618 18.761L16.6236 21.3552C16.2452 21.5718 15.8214 21.6969 15.386 21.7205C14.9506 21.744 14.5158 21.6654 14.1162 21.4909L12.412 20.6225C12.0134 20.4481 11.5795 20.3694 11.145 20.393C10.7105 20.4166 10.2876 20.5416 9.91011 20.7582L7.83692 22.0879C7.48584 22.346 7.19993 22.6825 7.002 23.0708C6.80413 23.459 6.69976 23.8881 6.69727 24.3239L6.82746 26.7715C6.87501 27.2043 7.02349 27.6198 7.26104 27.9846C7.49864 28.3495 7.81858 28.6534 8.19517 28.8719L10.366 29.9845C10.7639 30.161 11.1978 30.2412 11.6325 30.2186C12.0673 30.196 12.4905 30.0711 12.868 29.8542L14.9248 28.5191C15.2757 28.2607 15.5614 27.9241 15.7592 27.5359C15.9571 27.1477 16.0616 26.7188 16.0646 26.2831L15.9615 24.3727C15.9627 23.9367 16.0665 23.5072 16.2645 23.1187C16.4625 22.7303 16.7491 22.3939 17.1011 22.1367L21.0956 19.5371C21.4739 19.3201 21.8981 19.1952 22.3337 19.1726C22.7693 19.15 23.2041 19.2302 23.6029 19.4068L25.3016 20.2698C25.7005 20.4464 26.1353 20.5266 26.5709 20.504C27.0065 20.4813 27.4306 20.3565 27.809 20.1395L29.866 18.8044C30.217 18.5466 30.5026 18.21 30.6996 17.8216C30.8966 17.4332 30.9996 17.0039 31.0002 16.5684L30.8917 14.0991Z" fill="#bababa"/>
</svg>