<svg xmlns="http://www.w3.org/2000/svg" width="40" height="40" viewBox="0 0 40 40" fill="none">
<path d="M21.8409 6.88515L23.3279 5.39808C26.2482 2.47785 31.0023 2.40557 33.9394 5.30897C35.0522 6.41157 35.7919 7.83508 36.0542 9.37956C36.3166 10.9241 36.0884 12.5119 35.402 13.9201C35.0727 14.5928 34.9618 15.3515 35.0846 16.0903C35.2075 16.8291 35.558 17.5111 36.0873 18.041C37.0606 17.0655 37.8319 15.9078 38.3576 14.634C38.8832 13.3603 39.1528 11.9955 39.1509 10.6175C39.1488 9.23957 38.8756 7.87551 38.3463 6.60326C37.817 5.331 37.0422 4.17549 36.0662 3.20274C31.9593 -0.88102 25.293 -0.799754 21.1976 3.29548L7.02327 17.4694L5.85801 16.3042C2.88826 13.3344 2.86933 8.48007 5.89147 5.56309C7.01013 4.48669 8.43533 3.78401 9.97036 3.55207C11.5054 3.32013 13.0746 3.57035 14.4613 4.26819C15.0943 4.59255 15.8135 4.70857 16.5164 4.59972C17.2192 4.49086 17.8697 4.16268 18.3749 3.66204L18.411 3.62609C18.4223 3.61492 18.4312 3.60163 18.4373 3.58699C18.4434 3.57236 18.4465 3.55666 18.4465 3.54081C18.4465 3.52496 18.4434 3.50926 18.4373 3.49463C18.4312 3.48 18.4223 3.46671 18.411 3.45553C16.4601 1.55364 13.8458 0.485352 11.1213 0.476715C8.39674 0.46808 5.77569 1.51977 3.81278 3.40925C-0.41555 7.49111 -0.40044 14.2788 3.75541 18.4347L17.9255 32.6048L16.4203 34.1101C13.5001 37.0303 8.74573 37.1026 5.80887 34.1992C4.69598 33.0966 3.95642 31.673 3.69405 30.1286C3.43171 28.5842 3.65971 26.9963 4.34608 25.588C4.67537 24.9153 4.78635 24.1566 4.66353 23.4179C4.54069 22.6791 4.19018 21.997 3.66095 21.4672C2.68773 22.4427 1.91625 23.6003 1.39058 24.874C0.864904 26.1479 0.595347 27.5126 0.597301 28.8907C0.599254 30.2686 0.872679 31.6327 1.40196 32.9048C1.93124 34.1772 2.70601 35.3327 3.68199 36.3054C7.7887 40.3894 14.4552 40.3083 18.5506 36.2129L32.7433 22.02L33.913 23.1896C36.8332 26.1098 36.9055 30.864 34.0021 33.8009C32.8995 34.9139 31.476 35.6534 29.9315 35.9159C28.3871 36.1782 26.7992 35.9501 25.3909 35.2637C24.7181 34.9342 23.9589 34.8231 23.2199 34.9462C22.4809 35.0692 21.7986 35.4201 21.2687 35.9497C22.2443 36.923 23.4019 37.6946 24.6756 38.2202C25.9495 38.7459 27.3142 39.0155 28.6923 39.0136C30.0702 39.0115 31.4343 38.738 32.7064 38.2087C33.9788 37.6795 35.1343 36.9047 36.107 35.9287C40.1909 31.822 40.1097 25.1555 36.0144 21.0603L21.8409 6.88515ZM20.0415 30.4879L9.13982 19.5862L19.7241 9.00208L30.6258 19.9038L20.0415 30.4879Z" fill="#bababa"/>
</svg>