<svg xmlns="http://www.w3.org/2000/svg" width="32" height="30" viewBox="0 0 32 30" fill="none">
<path d="M31.4729 24.1655C31.2164 23.7571 30.881 23.404 30.4863 23.1267C30.0918 22.8494 29.6458 22.6536 29.1747 22.5507C27.372 22.1314 25.8086 21.0157 24.826 19.4472C23.8435 17.8788 23.5217 15.9852 23.931 14.1802C24.0884 13.4826 24.0361 12.7541 23.7808 12.086C23.5254 11.418 23.0784 10.8403 22.4958 10.4256C21.9132 10.0108 21.2211 9.77746 20.5062 9.75475C19.7915 9.73209 19.0859 9.92109 18.4782 10.2981C17.8705 10.6751 17.3877 11.2232 17.0905 11.8737C16.7934 12.5242 16.695 13.248 16.8078 13.9542C16.9206 14.6604 17.2396 15.3175 17.7246 15.843C18.2097 16.3685 18.8392 16.739 19.5341 16.9079C20.4331 17.1107 21.2833 17.4889 22.0358 18.0209C22.7884 18.5528 23.4285 19.2281 23.9196 20.008C24.4107 20.7879 24.743 21.657 24.8975 22.5655C25.0521 23.474 25.0258 24.4042 24.8201 25.3025C24.6984 25.8817 24.7201 26.4818 24.8834 27.0506C25.0467 27.6194 25.3467 28.1396 25.7571 28.5659C26.1676 28.9923 26.676 29.3117 27.2382 29.4965C27.8004 29.6813 28.3993 29.7257 28.9826 29.6261C29.5659 29.5264 30.116 29.2855 30.585 28.9245C31.0539 28.5635 31.4274 28.0933 31.6729 27.5549C31.9185 27.0164 32.0286 26.4261 31.9938 25.8354C31.9589 25.2446 31.7801 24.6713 31.4729 24.1655Z" fill="#bababa"/>
<path d="M9.16098 20.1373C9.79581 20.4837 10.5196 20.6326 11.2396 20.5647C11.9596 20.4969 12.6429 20.2155 13.2018 19.7567C13.7608 19.2978 14.1699 18.6824 14.3767 17.9894C14.5834 17.2964 14.5784 16.5575 14.3623 15.8674C14.0883 14.9874 13.9907 14.062 14.0751 13.1442C14.1595 12.2264 14.4241 11.3344 14.854 10.5191C15.2838 9.70385 15.8703 8.98143 16.5799 8.39326C17.2895 7.8051 18.1082 7.36283 18.989 7.0917C19.6722 6.87772 20.2768 6.46643 20.7267 5.90964C21.1767 5.35285 21.4519 4.6754 21.5177 3.96254C21.5836 3.24967 21.4371 2.53325 21.0967 1.90349C20.7563 1.27369 20.2373 0.758628 19.6049 0.423149C18.9725 0.0876705 18.255 -0.0532932 17.5427 0.0180776C16.8304 0.089404 16.1551 0.369821 15.6017 0.824088C15.0484 1.27831 14.6418 1.88607 14.4331 2.57085C14.2244 3.25563 14.2229 3.98685 14.4288 4.67247C14.9693 6.44252 14.7865 8.35465 13.9205 9.99026C13.0545 11.6259 11.5759 12.8518 9.80812 13.3998C9.11028 13.6021 8.48923 14.0093 8.02541 14.5686C7.56158 15.1279 7.27632 15.8136 7.2066 16.5368C7.13691 17.2601 7.28592 17.9876 7.63438 18.6252C7.98283 19.2628 8.51465 19.7811 9.16098 20.1131V20.1373Z" fill="#bababa"/>
<path d="M18.4992 19.5441C18.0167 19.5611 17.5425 19.6741 17.1043 19.8766C16.666 20.0792 16.2726 20.367 15.9469 20.7235C14.6837 22.0747 12.9369 22.8707 11.0885 22.9375C9.23999 23.0044 7.44021 22.3367 6.08266 21.0803C5.73189 20.7512 5.31922 20.4951 4.8686 20.3269C4.41802 20.1587 3.93846 20.0818 3.45784 20.1006C2.86626 20.1285 2.29045 20.3008 1.78076 20.6024C1.27103 20.904 0.842943 21.3258 0.533773 21.8309C0.224559 22.336 0.0437316 22.9092 0.00697966 23.5003C-0.0297279 24.0914 0.0787508 24.6825 0.323038 25.2221C0.567326 25.7616 0.939911 26.2331 1.40835 26.5955C1.8768 26.958 2.42679 27.2002 3.01038 27.3011C3.59396 27.402 4.19342 27.3586 4.75634 27.1746C5.31931 26.9905 5.82864 26.6715 6.23989 26.2454C6.86551 25.568 7.6186 25.0207 8.45603 24.6349C9.2935 24.2491 10.1988 24.0322 11.1202 23.9968C12.0416 23.9614 12.9609 24.1081 13.8255 24.4286C14.6901 24.7491 15.4829 25.237 16.1587 25.8643C16.5986 26.2618 17.1292 26.5455 17.7041 26.6904C18.279 26.8354 18.8806 26.8373 19.4564 26.696C20.0322 26.5547 20.5646 26.2745 21.007 25.8798C21.4495 25.4851 21.7885 24.988 21.9944 24.432C22.2003 23.876 22.2668 23.2781 22.1882 22.6904C22.1095 22.1028 21.8881 21.5434 21.5432 21.0611C21.1983 20.5788 20.7406 20.1884 20.21 19.9239C19.6793 19.6595 19.0919 19.5291 18.4992 19.5441Z" fill="#bababa"/>
</svg>