<svg xmlns="http://www.w3.org/2000/svg" width="33" height="30" viewBox="0 0 33 30" fill="none">
<path d="M26.4339 24.0428C25.8696 23.4133 25.391 22.7109 25.0107 21.9542C24.41 20.7681 23.5795 19.7151 22.5685 18.8573C21.5574 17.9995 20.3861 17.3542 19.1236 16.9594C18.0196 16.6156 16.8643 16.4697 15.7102 16.5282C16.5502 16.4799 17.3773 16.753 18.0257 17.2931C18.6742 17.833 19.0962 18.5999 19.2069 19.44C19.5106 21.2552 20.3093 22.9496 21.5139 24.334C22.7184 25.7183 24.2814 26.7381 26.0281 27.2794C28.0254 27.8977 30.1657 27.8644 32.1432 27.1842C29.9405 26.8223 27.9264 25.7142 26.4339 24.0428Z" fill="#bababa"/>
<path d="M12.2722 16.3489C12.5292 17.4696 12.9813 18.5373 13.6081 19.5038C13.1504 18.802 12.9742 17.9554 13.1144 17.1311C13.2545 16.3067 13.7008 15.5644 14.3651 15.0505C15.7761 13.892 16.8354 12.3675 17.4251 10.6467C18.0147 8.92589 18.1116 7.07641 17.7049 5.30423C17.2406 3.27691 16.1393 1.44854 14.5599 0.0830078C15.3462 2.16934 15.3914 4.45967 14.6879 6.57501C14.4186 7.37361 14.0443 8.13342 13.5747 8.83478C12.8536 9.93654 12.3624 11.1707 12.1301 12.4642C11.8977 13.7576 11.929 15.0842 12.2221 16.3655L12.2722 16.3489Z" fill="#bababa"/>
<path d="M17.1934 20.251C16.8201 21.005 16.18 21.5877 15.4015 21.8823C14.6231 22.177 13.7637 22.1617 12.9958 21.8396C11.3035 21.1954 9.46822 21.0419 7.69503 21.3962C5.92178 21.7506 4.2805 22.5989 2.95456 23.8464C1.44272 25.2752 0.416642 27.1549 0.0244293 29.2144C1.43125 27.4796 3.37843 26.284 5.54438 25.8252C6.35811 25.6561 7.1894 25.5905 8.01904 25.6301C9.3204 25.6987 10.622 25.5016 11.8472 25.0507C13.0723 24.5997 14.1961 23.9041 15.1522 23.0047C15.989 22.2152 16.6834 21.2833 17.2043 20.251H17.1934Z" fill="#bababa"/>
</svg>