<svg xmlns="http://www.w3.org/2000/svg" width="36" height="38" viewBox="0 0 36 38" fill="none">
<path d="M31.6372 14.0753L31.6151 14.0532C31.6133 14.0519 31.6118 14.0503 31.6109 14.0484L17.7758 0.212891L3.94085 14.048C3.93926 14.0496 3.93837 14.0517 3.93676 14.0528L3.91393 14.0749C1.79837 16.2024 0.454625 18.9759 0.0963089 21.9548C-0.262007 24.9336 0.38567 27.9467 1.93637 30.5152C3.48708 33.0837 5.85183 35.0602 8.6547 36.1303C11.4576 37.2003 14.5377 37.3029 17.4055 36.4213C17.6468 36.3475 17.9047 36.3475 18.1461 36.4213C21.0136 37.3025 24.0936 37.2 26.8963 36.1297C29.699 35.0595 32.0634 33.0832 33.614 30.5149C35.1647 27.9466 35.8124 24.9336 35.4542 21.9549C35.0961 18.9763 33.7525 16.2027 31.6372 14.0753ZM8.86039 23.1986C8.79304 23.266 8.73963 23.346 8.70321 23.4339C8.66676 23.5218 8.64801 23.6161 8.64802 23.7113C8.67264 26.1532 9.36273 28.542 10.644 30.6208C10.6731 30.668 10.6866 30.7232 10.6824 30.7784C10.6783 30.8336 10.6568 30.8861 10.621 30.9284C10.5852 30.9708 10.537 31.0006 10.4832 31.0138C10.4294 31.027 10.3728 31.0229 10.3215 31.002C9.35823 30.5969 8.48317 30.0079 7.74524 29.2681C6.23298 27.7556 5.3828 25.7046 5.38143 23.5657C5.38005 21.4269 6.2276 19.3748 7.73794 17.8604L17.7758 7.82346L27.8132 17.8604C29.3238 19.3746 30.1716 21.4267 30.1702 23.5657C30.169 25.7046 29.3186 27.7556 27.8063 29.2681C27.0683 30.0079 26.1933 30.5969 25.2302 31.002C25.1788 31.0229 25.1222 31.027 25.0684 31.0138C25.0146 31.0006 24.9664 30.9706 24.9305 30.9284C24.8948 30.8861 24.8731 30.8336 24.869 30.7782C24.8649 30.723 24.8783 30.6678 24.9074 30.6206C26.189 28.542 26.8795 26.1532 26.9045 23.7113C26.9045 23.6161 26.8855 23.5218 26.8489 23.4337C26.8123 23.3456 26.7587 23.2658 26.6912 23.1985L21.9434 18.1626C21.8961 18.1231 21.8366 18.1015 21.775 18.1015C21.7135 18.1015 21.6539 18.1231 21.6067 18.1626C21.5594 18.2019 21.5276 18.2567 21.5165 18.3173C21.5054 18.3778 21.5159 18.4402 21.5463 18.4938C23.3902 21.8306 21.8046 26.6235 19.1604 29.2681L19.1465 29.2821C18.7815 29.6431 18.2888 29.8455 17.7755 29.8453C17.2621 29.8451 16.7695 29.6424 16.4048 29.2812L16.392 29.2681C13.7468 26.6235 12.162 21.8311 14.0062 18.4945C14.0365 18.4409 14.0471 18.3785 14.036 18.318C14.025 18.2574 13.9931 18.2026 13.9459 18.1633C13.8986 18.1238 13.839 18.1022 13.7775 18.1022C13.7159 18.1022 13.6563 18.1238 13.6091 18.1633L8.86039 23.1986Z" fill="#bababa"/>
</svg>